<svg xmlns="http://www.w3.org/2000/svg" viewBox="494 -36 1557.5 809.3" fill="#173c7e"><ellipse transform="matrix(-.465 -.8853 .8853 -.465 1988.6572 1158.168)" cx="1344.3" cy="-21.8" rx="10.5" ry="9.4"/><ellipse transform="matrix(-.465 -.8853 .8853 -.465 1923.5282 1133.6305)" cx="1304.3" cy="-14.4" rx="11.3" ry="10.1"/><path d="M1274.3-10.3c3.1 5.9 1.3 13-3.9 15.7-5.3 2.8-12.1.2-15.2-5.7s-1.3-13 3.9-15.7c5.4-2.8 12.1-.2 15.2 5.7z"/><ellipse transform="matrix(-.465 -.8853 .8853 -.465 1789.9395 1093.1115)" cx="1225.3" cy="5.7" rx="12.9" ry="11.5"/><ellipse transform="matrix(-.465 -.8853 .8853 -.465 1721.3193 1077.6141)" cx="1186.3" cy="18.7" rx="13.7" ry="12.3"/><ellipse transform="matrix(-.465 -.8853 .8853 -.465 1652.0349 1064.9275)" cx="1147.8" cy="33.3" rx="14.5" ry="13"/><ellipse transform="matrix(-.465 -.8853 .8853 -.465 1581.7805 1054.7335)" cx="1109.6" cy="49.4" rx="15.3" ry="13.7"/><ellipse transform="matrix(-.465 -.8853 .8853 -.465 1510.6641 1047.5885)" cx="1071.9" cy="67.3" rx="16.1" ry="14.5"/><ellipse transform="matrix(-.465 -.8853 .8853 -.465 1438.8274 1043.3844)" cx="1034.7" cy="86.9" rx="16.9" ry="15.2"/><ellipse transform="matrix(-.465 -.8853 .8853 -.465 1366.8132 1041.8235)" cx="998.2" cy="107.9" rx="17.7" ry="15.9"/><path d="M977.1 122.9c4.7 9 2.1 19.8-6.1 24.1-8.1 4.3-18.6.4-23.3-8.7-4.7-9-2.1-19.8 6.1-24.1 8-4.2 18.5-.3 23.3 8.7zm-34.8 23.9c5 9.5 2.1 20.7-6.4 25.2s-19.4.5-24.4-9-2.1-20.7 6.4-25.2c8.5-4.4 19.4-.5 24.4 9z"/><ellipse transform="matrix(-.465 -.8853 .8853 -.465 1140.3937 1056.3704)" cx="889.4" cy="183.6" rx="20.1" ry="18.1"/><path d="M870.7 202.1c5 9.5 2.1 20.7-6.4 25.2s-19.4.5-24.4-9-2.1-20.7 6.4-25.2c8.6-4.5 19.5-.3 24.4 9zm-36.6 31.7c4.7 9 2.1 19.8-6.1 24.1-8.1 4.3-18.6.4-23.3-8.7-4.7-9-2.1-19.8 6.1-24.1s18.6-.3 23.3 8.7z"/><ellipse transform="matrix(-.465 -.8853 .8853 -.465 906.0765 1096.6312)" cx="784.4" cy="274.5" rx="17.7" ry="15.9"/><ellipse transform="matrix(-.465 -.8853 .8853 -.465 825.8094 1116.8586)" cx="750.4" cy="308.9" rx="16.9" ry="15.2"/><path d="M730.3 338.2c4.1 7.9 1.7 17.3-5.4 21s-16.2.4-20.3-7.5-1.8-17.2 5.4-21 16.2-.3 20.3 7.5z"/><ellipse transform="matrix(-.465 -.8853 .8853 -.465 665.7319 1167.3469)" cx="685.6" cy="382.5" rx="15.3" ry="13.7"/><ellipse transform="matrix(-.465 -.8853 .8853 -.465 586.3819 1197.3547)" cx="655" cy="421.5" rx="14.5" ry="13"/><ellipse transform="matrix(-.465 -.8853 .8853 -.465 507.3163 1230.248)" cx="625.4" cy="461.8" rx="13.7" ry="12.3"/><ellipse transform="matrix(-.465 -.8853 .8853 -.465 429.4182 1266.1141)" cx="597.3" cy="503.3" rx="12.9" ry="11.6"/><path d="M580.1 541.4c3.1 5.9 1.3 13-3.9 15.7-5.3 2.8-12.1.2-15.2-5.7s-1.3-13 3.9-15.7c5.4-2.8 12.1-.3 15.2 5.7z"/><ellipse transform="matrix(-.465 -.8853 .8853 -.465 275.6815 1347.8347)" cx="545.1" cy="590.6" rx="11.3" ry="10.1"/><ellipse transform="matrix(-.465 -.8853 .8853 -.465 200.0808 1393.1843)" cx="521" cy="636.1" rx="10.5" ry="9.4"/><ellipse transform="matrix(-.465 -.8853 .8853 -.465 137.5857 1435.6248)" cx="502.6" cy="676.2" rx="8.2" ry="7.3"/><ellipse transform="matrix(-.465 -.8853 .8853 -.465 2044.5067 1179.5356)" cx="1378.7" cy="-28" rx="8.2" ry="7.3"/><path d="M1962.3 161.6l-27.8-6.9 44.9 34.2-.3.8c-4.3-.5-8.5-1.2-12.8-1.5-5.6-.5-11.3-.9-17-1-2.7 0-5.9.6-6 4.2-.1 3.1.5 5.8 4.4 7.3l77.6 30.9c9.1 3.8 17.5 9.3 26.2 14.6-1.9-.3-3.8-.6-5.7-1l-32.1-6.7c-3.9-.9-7.5-2.7-11.3-3.7-1.4-.4-3.1.4-4.7.6.3 1.5.2 3.2 1 4.3 2 3.1 4.4 6 6.3 9.1.7 1.1.5 2.7.7 4-1.3.1-2.8.7-3.9.4l-40.8-13.6-22.8-7.5-2.6 5.6 14.8 4.6c22.9 6.4 45 15.2 65.9 26.4 7.5 4 13.3 10.4 16.7 18.3.8 2 .4 4.9-.5 7-.5 1.1-3.3 1.9-4.9 1.7-19.8-3.1-38.3-10.6-57.1-17l-53-18.7c-1-.4-2.1-.5-4.1-.9 4.6 5.8 11.7 8.9 12.8 17.8-40.7-19.1-83.3-25.2-126.3-30.9l-1.2 7.9 8.8 1.5c2.8.5 5.5 1.1 9 1.8l-1 16.7c-6.7-.4-13-1-19.4-1.2-17-.6-34-1.7-51-1.4-14.1.3-28.3 1.6-41.8 6.4-3.2 1.1-6.6 2.6-8.9 4.9-2 2.1-3.6 5.6-3.7 8.4-.1 5.5 2.2 6.9 7.7 6 .8-.1 1.7-.2 2.5-.2 10.2-.5 10.7.1 9.7 10.4-.1.7 0 1.4-.1 2.4 36.1 4.3 71.7 10.2 106.9 20.4 0 .4-.1.9-.1 1.5l-1.3 10.6-28-3-.3 1.9c5 1.1 10.1 2.3 15.1 3.2 6 1.1 11.2 3.4 16.3 6.8 13.9 9.4 12.8 8.3 21.7-2.1 4.1-4.9 7.3-10.5 11.2-15.6 2.6-3.3 5.3-6.8 8.6-9.3 6.6-5 13.8-2.1 16.2 5.7.9 3.1 2.3 6.1 3.8 8.9 1.7 3.3 4.2 3.7 6.3.7 2.5-3.6 4.5-7.5 6.6-11.4.9-1.7 1.6-3.7 2.3-5.5 4.7-12.5 12.7-14.6 27.6-11.7 13.6 2.7 26.8 6.8 39.1 13.2 22.3 11.7 44.6 23.5 64.3 39.4 2.9 2.3 5.5 5.1 8.2 7.6-.3.5-.5 1-.8 1.6-2.6-.7-5.2-1.2-7.7-2.1-13.5-4.9-26.7-10.5-40.4-14.8-11.7-3.7-23.9-6.4-36-8.5-10-1.8-20.4-3.7-30 1.5-5.3 2.9-10.3 6.5-15.5 9.7l-27.7 16.6c-2.7 1.7-5 3.9-8.5 6.7l7.7 2 53.5 17.1c6.4 2.2 12.4 5.7 18.5 8.7 2.6 1.3 4.2 3.3 3.5 6.5-.4 2.2-.5 4.5-.9 7.3 13.1 3.8 25.5 10 37 17.9 11.5 7.8 22.5 16.5 33.5 25.2-59.9-25-119.5-50.7-183.9-64.4 3.7 6.2 1.4 12.2.8 18.2-1.1 11 2.3 20.3 11 27.2 6.4 5.1 13.1 9.8 20.4 15.2l-1-5.2c3.8-2.6 8-2.9 11.9-1 5.1 2.5 9.7 6.3 14.9 8.2 5.7 2.1 8.9 4.3 9 11.3 0 3.8 3.7 7.7 6.1 11.3 1.1 1.6 2.8 2.9 4.5 3.9 11.4 7.4 14.5 18 11.7 30.7-5.3 1.6-10-.4-14.1-3.2-7.5-5.4-14.6-11.3-21.8-17.1-3.9-3.1-7.6-6.4-11.7-9.8l-7.7 9.2c2.3 2.3 4.7 4.5 6.8 6.9 7.7 8.9 10.6 19.7 12.3 31.2 2 13.3 4.6 26.6 7.4 39.8.8 3.7 3.1 7.2 4.8 11.2-11.2-4.3-20.8-9.2-21.7-22.5.3-.2.6-.4.8-.4 9.3.6 11.5-2.6 7.6-11-1.1-2.4-2.6-4.8-4.3-6.8-2.6-3.3-6.3-4.2-10.4-3.5-4 .7-5.7 3.8-6.3 7.2-.8 5-1.2 10.2-1.4 15.3-.2 6.6 4.5 11.2 7.5 16.4 4.9 8.4 10.3 16.4 11.7 26.3.8 5.8-3.2 10.4-9 9.3-12.2-2.4-21.8-8.9-26.9-20.6-2.9-6.7.1-11.1 7.4-11.7 4.1-.4 8-1.3 9.9-5.4 1.7-3.5-1.4-12.2-5-14-2.6-1.3-5.5-1.3-7.4 1.2-4.7 6.4-9.1 13-13.6 19.5-1.5 2.2-2.9 4.6-4.7 6.6-5 5.7-10.3 6.4-16.5 1.9-2.5-1.8-4.3-1.2-6.8-.1-4.6 1.9-9.5 3.9-14.4 4.3-8.1.7-13.5-4.3-17.8-10.5-.6-.8-1.1-1.7-1.6-2.5-2.5-5-5.1-10-11.6-10.7-5.3-.5-10.6-1.3-16-1.4-7.4-.2-14.2 2-20.7 5.6-7.2 4-12.3 9.9-17.6 15.9-.9 1.1-1.8 2.1-3 3.5-4.3-4-5.8-9.4-8.2-14.3-1.3-2.6-2.6-5.5-4.7-7.5-1.5-1.4-4.5-2.1-6.4-1.7-1.3.3-2.6 3.2-2.8 5.1-.6 7.7 4.1 13.7 7.3 20.1 1.7 3.3 3.8 6.3 6 9.3 2.5 3.4 3.1 6.8.7 10.5-1.1 1.7-1.7 3.6-2.7 5.6-1-.6-1.8-1-2.7-1.6 0 .5-.1.9 0 1.2.6 2.8 1.5 5.5 1.8 8.3.6 5.1-2.3 8.3-7.4 8.1-4-.1-7.9-.7-11.9-1.3-5.8-.8-7.4-.4-12.8 3.7-2.5-3-5.3-5.9-7.6-9.1-1.7-2.4-2.5-5.5-4.1-7.9-1.4-2.1-3.5-5-5.4-5.1-1.7-.1-3.7 3-5.8 5l-10.1-10.4 16.2-13.4c18-15.5 31.6-34.5 43-55.3 10.1-18.3 15.6-37.9 19.1-58 2.2-12.2 2.2-24.8 2.5-37.3.5-15.3-1.9-30.3-5.3-45.2-4.1-18-10.3-35.3-18.5-51.9-23.2-47.3-56.5-85.9-100.5-114.8-15.1-9.9-31.9-17.5-47.9-26-13.1-7-27.2-11.4-41.6-15-11.4-2.9-22.8-5.5-34.3-8.2-6.4-1.5-6.5-1.4-5.4-7.9l3.3-18.6-13.8-3.3c-2.9 6.7-6.3 13.5-8.7 20.7-1.5 4.5-3.5 5.3-7.9 4.8-7-.8-14.2-.6-21.3-.9-2.8-.1-5.7-.7-8.5-.5-12.9.9-25.8 1.6-38.5 3.3-12.5 1.6-24.9 3.9-37.2 6.8-18.6 4.4-36.2 11.4-53.3 20-27.9 14.1-52.3 32.6-71.2 57.7-8.9 11.8-15.7 24.8-18.6 39.4-3.4 16.6 4.3 29 18.3 35.6 8.4 3.9 17 7.1 26.2 8.7 15.1 2.7 30.4 5.2 45 9.6 16.3 5 32.3 11.4 45 23.4 9.8 9.2 16.8 20.3 14.5 34.2-1.1 6.7-4.8 13.4-8.9 19-6.7 8.9-14.9 17-26.1 19.6-10.3 2.4-20.9 3.2-31.5-.7-13.4-4.9-27.2-8.9-40.9-13-2.2-.7-4.9-.7-7.1 0-11.9 3.7-23.2 9-31.5 18.7-11.8 13.9-12.7 29.7-7.6 46.6 5.2 17.3 14.9 31.7 26.4 45.3 15.8 18.6 35.4 32.1 56.3 44.5 17.3 10.3 35.4 18.7 54 26.1.7.3 1.3.6 1.9.9 5.8 2.6 5.5 2.7 3.6 8.9-2 6.8-3.2 13.8-4.8 20.7l-6.7 30.3c-.2.9-.3 1.9-.5 2.8 6.2 2.6 6.2 2.4 8.1-3.9l14-44.3c.8-2.4 1.4-4.9 2.3-8 61.3 21.5 123.8 31.5 188.5 22 .1.3.2.7.3 1l-11.9 5.3c-6.6 3-13.3 5.7-19.6 9.2-5.6 3.1-9.3 8.2-10.8 14.7-.3 1.3-1.4 2.8-2.6 3.5-9 5.7-18.9 8.3-29.4 9.2-18.9 1.7-36.7-2-53.6-10.4-4-2-7.6-4.9-11.9-6.9 1.5 1.5 2.8 3 4.4 4.3l24 20.6c5.1 4.6 9.5 10 11.2 16.8.7 2.8-.1 6-.1 9-2.7-.5-5.8-.3-8.1-1.5-9.7-5.4-19.1-11.3-28.6-17-7.5-4.4-15.1-8.6-23.9-9.6-4.3-.5-7.8 1-10.1 5.2 4.5 1.9 9.3 3.4 13.6 5.8 8.1 4.6 10.6 13 12.6 21.3.9 3.5-1 4.8-4.7 4.1-10.4-1.9-16.4-8.9-21.3-17.5-2.5-4.3-5-8.7-8.2-12.4-3.6-4.1-11.1-4-15.2-.4-.7.6-.9 2.3-.7 3.2 1.2 4.6 2.6 9.2 4.2 14.9-3.7-1.5-6.4-2.4-8.8-3.7-5.5-3-10.9-6.2-16.2-9.4-8.9-5.4-10.4-9.4-8.4-19.5 1.3-6.5 2.1-13-2.4-18.8-1-1.3-2.1-2.5-3.3-3.9-3.5 2.5-6.6 5-10 7-9 5.4-19.2 7-29.2 8.8-5.8 1.1-11-1.2-15.8-4-2.9-1.7-4.6-.9-6.1 1.1-2.2 2.8-4 5.8-6.4 9.4l-8.6-9.4c-2-2.2-3.7-4.6-5.8-6.8-4.7-5-9-5.7-14.8-2.1-22.2 13.7-46.3 22.9-71.1 30.7-12 3.8-24.4 6.5-37.1 6.9-7.6.2-11.9-3.3-13.1-10-3.1-16.7-2.6-33.6-2.8-50.5-.1-10.9-.8-21.8-1.2-32.7 0-1.3.2-2.5.3-3.8.3-5.3.3-10.3-2.1-15.4-2.5-5.4-3.9-11.2-6-16.8-3.7-9.7-9.2-18.2-17.5-25.2l5.2-8.8c.9-1.6 1.7-3.3 2.1-5.1.8-3.8-.7-5.6-4.6-5.9-5.7-.4-10.5 2-14.2 5.8-9.1 9.4-17.7 19.2-26.4 29-2.2 2.4-4.1 5.1-6.2 7.7-4.2 5.1-9.5 5.7-14.9 1.7-5.5-4-8.6-9.7-11-15.9-1.6-4.2-3.3-8.4-6.2-13.1l-22.3 49.6c-.2 0-.5.1-.7.1l-.6-14.7c-.1-3.8.1-7.6.4-11.4 1.1-14 1.9-28.1 3.6-42.1 1.2-10.6 3-21.1 5.5-31.4 3.5-14.5 7.8-28.7 12.1-43 3.2-10.6 6.2-21.3 10.5-31.5 8.4-19.7 16.4-39.8 26.7-58.5 16.1-29.5 33.9-57.9 54.5-84.6 19.8-25.7 41.6-49.5 65.1-71.7 11.1-10.4 22.6-20.4 34.4-30.1 13.3-10.9 26.9-21.4 40.8-31.5 18.7-13.5 37.9-26.1 58.4-36.7l35.1-18.4c11.1-5.5 22.3-10.6 33.7-15.4a593.76 593.76 0 0 1 31.2-12.3c14.4-5.2 28.8-10.6 43.5-14.8 19.1-5.4 38.5-9.7 57.9-14.1 9.4-2.1 19-3.2 28.5-4.7 10.1-1.6 20.1-3.4 30.3-4.5 11-1.1 22-1.4 33.1-2.2 4-.3 7.9-1.1 11.9-1.1l36.1.5c14.9.4 29.8.6 44.7 1.6 11.7.8 23.4 2.7 35.1 4.3 8.7 1.2 17.4 2.5 26.1 4.2 12.1 2.4 24.4 4.5 36.2 8 23.9 7.1 48 14.1 71.3 22.9 22.3 8.4 44.3 17.9 65.3 29.2 24.2 13.1 48.2 26.9 70.1 43.9 4.2 3.2 8.5 6.2 12.7 9.3.3 1.1.1 1.5 0 1.8zm-462.4-93.2c-.6-.5-1-1-1.5-1.1-7.3-1.7-14.6-2.4-21.9-.4-3.2.9-6.2 2.8-9.4 3.8-13.1 4.3-29.7 21.5-27.5 39.6 1.1 9.4 2.5 18.9 8.4 26.5 4.4 5.7 7.9 10.8 4 17.9 7.1 5.4 14.2 6.3 19.6 2.8 8.4-5.5 15.2-20.2 12.5-32.8-1.5-7.1-3.4-14.1-4.7-21.2-2-11.2 3.1-19.9 10.9-27.2 2.8-2.8 6.2-5.2 9.6-7.9z"/><path d="M1336.3 638.3c-.4.1-.5.1-.6.1-10.5-2.2-10.4-2.2-8.2-12.5l10-45.7 8.6-37.3 14.6-60.8 9.6-41.5 10.4-41.2c2-8.4 3.2-17 5-25.5 1.9-9 4.2-18 6.4-26.9 3.6-14.8 6.7-29.6 11-44.2 5.7-19.5 12.2-38.7 18.4-58.1 2.3-7.2 4.3-14.5 6.8-21.6 3.7-10.4 7.6-20.7 11.6-31.1.3-.7 1.3-1.8 1.9-1.7 6.3.2 12.7.6 19.7 1l-2.8 17.6c-1.1 6.6-2.2 13.2-3.6 19.7l-9.1 43.8c-2.5 11.2-4.9 22.5-8 33.5l-15.1 51.5-18.7 61.1-17.6 56.9-18.1 61.3-16.6 52.4c-2.4 7.7-4.3 15.6-6.7 23.4l-8.9 25.8zm19.1-305.7c-7.8 8.9-17.5 13.6-29.1 15.4-26.2 4.1-47.3-5.4-65.1-23.6-7.6-7.8-13-17.5-15-27.8-4.6-23.5 2.4-44.3 28.3-53.6 19.8-7.1 38.9-3.2 57 6.8 10.8 6 19.6 14.3 25.6 25.1 8.4 15.1 11.9 31 4.7 47.7-1.6 3.5-4.3 6.6-6.4 10zm261.8 138.5c-14.8-12.6-22.9-28.6-24.5-48-1.4-17 11.3-33.4 28.1-34.6 8.7-.6 17.4 2.2 25.1 7 12.2 7.6 20.3 18.4 26.4 31.5 5.1 11.1 6.3 22.2 3.8 33.6-4.2 19.1-18.6 25.5-36.1 22.4-8.2-1.4-15.6-7-23.3-10.7.1-.4.3-.8.5-1.2zm26.1-5.6c-14.7-10.7-24.4-24.4-29.8-42.3-3.1 10.5-.1 18.6 5.3 26.3 6 8.5 13.2 15 24.5 16zm-74.8 110.7c-14.2-12.4-23.9-27.6-24.1-46.7-.2-21.1 7.6-33.7 28.8-35.7 7.4-.7 15.9 3 22.9 6.6 13.7 7 21.9 19.2 27.9 33.3 5.5 12.9 6 25.6.9 38.4-3.5 8.8-10.5 13.7-19.8 15.9-12.7 2.9-23-2.4-33.1-8.8-1.2-.8-2.3-2-3.5-3zm24.7-6.4c-5.1-5.6-11.4-11.5-16.3-18.4-4.8-6.8-8.2-14.7-12-21.6-5.4 15.1 12.9 40.4 28.3 40z"/><path d="M1612.9 287.9c14.8 14.3 23.7 30.9 24.2 51.4.4 15.4-11.5 30.1-26.4 32.3-8.1 1.2-15.8-1.5-23-5.1-13.5-6.7-22.2-17.9-29.2-31.1-5.6-10.7-6.9-21.8-5.3-33 3-21.4 22.6-30.7 41-23.6 6.5 2.5 12.5 6.1 18.7 9.1zm-38 27.2c-.4 3-1.7 6.2-1 9 2.9 11.4 8.3 21.5 18.8 27.9 3.8 2.3 7.8 4.2 12.9 3.8-13.6-11.4-25.2-23.4-30.7-40.7zm-109.1 303.3c-10.9-10-19-22-22.3-36.5-2.2-9.8-2.1-19.7 2.1-29.2 3.8-8.7 10.4-13.6 19.4-15.7 13.2-3.1 24.3 2.2 34.5 9.4 8 5.6 13.6 13.5 18.7 21.9 7.5 12.5 9.9 25.7 6.6 39.7-4.1 17.3-14.8 22.9-28.6 23.2-11.1.2-21.8-4.8-30.4-12.8zm27.9-2.2c-13.8-11.3-24.9-24-30.4-40.9-2.7 10.7 1.4 19.7 7.5 27.9 5.5 7.5 12.4 13.2 22.9 13zm-240.1 87.2c2.1 9 4.8 17.9 6.2 26.9.9 6.1.5 12.5-.4 18.6-1.6 11.3-9.5 17.3-19.7 20.8-3.7 1.3-7.5 2.9-11.3 3.4-6.4.9-8.9-1.6-10.1-7.9-2.2-11.3-.2-21.6 5.8-31.5 2.5-4.1 3.4-9 5.3-13.5 1.9-4.4 3.8-8.9 6.1-13.1 2.3-4.1 6.2-5.6 10.9-4.7 2.1.7 4.3.7 7.2 1zm531.3-75.4c11.4 8.5 17.5 28.8 11.1 43.4-9.5-7.3-18.8-14.7-22.6-26.8 10.3-1.8 12.7-5.3 11.5-16.6zm-312.2 110.5c6.8 2.1 11.1 7.1 14.2 12.8 3.1 5.6 5.4 11.8 8.1 18.1-4.6 1-8.6-.3-12.2-2.5-2.9-1.8-5.5-4.1-8-6.3-3.3-3-6.9-5.5-3.1-11.1 1.8-2.7.8-7.2 1-11zm207.2-85.1c2.6-2.4 5.2-3.1 7.3-.4 2.1 2.6 4 5.5 5.3 8.5 2.3 5.2 1.5 8-1.9 9.5-4 1.8-10 .1-12.1-3.4-2.1-3.6-1.2-11.4 1.4-14.2zm254.2-269.5c5.9-.8 11.9-2.6 17.3 0 2.5 1.2 3.6 5.5 5.1 8.5.2.3-1.6 2.2-2.7 2.5-6.3 1.2-16.8-4.5-19.7-11z"/></svg>