<svg xmlns="http://www.w3.org/2000/svg" viewBox="331 168.4 1273.8 621.7" fill="#173c7e"><ellipse transform="matrix(-.465 .8853 -.8853 -.465 2199.0884 227.8911)" cx="1030.7" cy="778.4" rx="8.6" ry="7.7"/><ellipse transform="matrix(-.465 .8853 -.8853 -.465 2145.5952 248.0348)" cx="997.9" cy="772.3" rx="9.3" ry="8.3"/><path d="M960.8 773.7c-4.3-2.2-5.8-8.1-3.2-12.9 2.5-4.8 8.1-7 12.5-4.7 4.3 2.2 5.8 8.1 3.2 12.9s-8.1 7-12.5 4.7z"/><ellipse transform="matrix(-.465 .8853 -.8853 -.465 2035.8252 281.2003)" cx="932.9" cy="755.7" rx="10.6" ry="9.5"/><ellipse transform="matrix(-.465 .8853 -.8853 -.465 1979.3784 294.1229)" cx="900.8" cy="745.1" rx="11.3" ry="10.1"/><ellipse transform="matrix(-.465 .8853 -.8853 -.465 1922.4135 304.6857)" cx="869.1" cy="733.2" rx="11.9" ry="10.7"/><ellipse transform="matrix(-.465 .8853 -.8853 -.465 1864.871 312.9144)" cx="837.9" cy="719.9" rx="12.6" ry="11.3"/><ellipse transform="matrix(-.465 .8853 -.8853 -.465 1806.3867 318.8021)" cx="806.9" cy="705.2" rx="13.2" ry="11.9"/><ellipse transform="matrix(-.465 .8853 -.8853 -.465 1747.3771 322.2548)" cx="776.3" cy="689.1" rx="13.9" ry="12.5"/><ellipse transform="matrix(-.465 .8853 -.8853 -.465 1688.1187 323.4641)" cx="746.3" cy="671.8" rx="14.5" ry="13.1"/><path d="M709.9 666.7c-6.7-3.5-8.9-12.4-5-19.8 3.9-7.5 12.5-10.7 19.1-7.1 6.7 3.5 8.9 12.4 5 19.8-3.9 7.3-12.5 10.5-19.1 7.1zm-29.5-19.4c-7-3.7-9.4-12.9-5.3-20.7s13.1-11.1 20.1-7.4 9.4 12.9 5.3 20.7c-4.2 7.8-13.1 11-20.1 7.4z"/><ellipse transform="matrix(-.465 .8853 -.8853 -.465 1502.0392 311.5313)" cx="656.9" cy="609.6" rx="16.5" ry="14.9"/><path d="M621.6 601.8c-7-3.7-9.4-12.9-5.3-20.7s13.1-11.1 20.1-7.4 9.4 12.9 5.3 20.7c-4.1 7.7-13.1 11.1-20.1 7.4zm-29.2-26.3c-6.7-3.5-8.9-12.4-5-19.8 3.9-7.5 12.5-10.7 19.1-7.1 6.7 3.5 8.9 12.4 5 19.8-3.8 7.4-12.4 10.7-19.1 7.1z"/><ellipse transform="matrix(-.465 .8853 -.8853 -.465 1309.547 278.6277)" cx="570.6" cy="535" rx="14.5" ry="13.1"/><ellipse transform="matrix(-.465 .8853 -.8853 -.465 1243.5642 261.7075)" cx="542.7" cy="506.6" rx="13.9" ry="12.5"/><path d="M509.6 488.8c-5.9-3.1-7.8-10.8-4.4-17.3s10.8-9.2 16.7-6.2c5.8 3 7.8 10.8 4.4 17.3-3.4 6.4-10.8 9.3-16.7 6.2z"/><ellipse transform="matrix(-.465 .8853 -.8853 -.465 1112.1088 220.3839)" cx="489.5" cy="446.2" rx="12.6" ry="11.3"/><ellipse transform="matrix(-.465 .8853 -.8853 -.465 1046.5885 195.6976)" cx="464.2" cy="414.1" rx="11.9" ry="10.7"/><ellipse transform="matrix(-.465 .8853 -.8853 -.465 981.9244 168.6666)" cx="440" cy="381" rx="11.3" ry="10.1"/><ellipse transform="matrix(-.465 .8853 -.8853 -.465 917.7599 139.2189)" cx="416.8" cy="346.9" rx="10.6" ry="9.5"/><path d="M390.3 320.3c-4.3-2.2-5.8-8.1-3.2-12.9 2.5-4.8 8.1-7 12.5-4.7 4.3 2.2 5.8 8.1 3.2 12.9-2.5 5-8 7-12.5 4.7z"/><ellipse transform="matrix(-.465 .8853 -.8853 -.465 791.4022 72.1684)" cx="373.9" cy="275.2" rx="9.3" ry="8.3"/><ellipse transform="matrix(-.465 .8853 -.8853 -.465 729.4692 34.7733)" cx="354.2" cy="237.8" rx="8.6" ry="7.7"/><ellipse transform="matrix(-.465 .8853 -.8853 -.465 678.1378 -.2285)" cx="339.1" cy="204.8" rx="6.7" ry="6"/><ellipse transform="matrix(-.465 .8853 -.8853 -.465 2244.9426 210.3611)" cx="1058.9" cy="783.5" rx="6.7" ry="6"/><path d="M1538.6 629.2l-10.4 7.6c-18 14-37.7 25.3-57.6 36.1-17.3 9.3-35.3 17.1-53.7 24-19.1 7.2-39 13-58.6 18.8-9.7 2.9-19.8 4.6-29.7 6.6-7.1 1.4-14.3 2.5-21.4 3.5-9.6 1.3-19.2 2.9-28.8 3.5-12.2.8-24.5 1-36.7 1.3l-29.7.4c-3.3 0-6.5-.7-9.8-.9-9.1-.7-18.2-.9-27.2-1.8-8.4-.9-16.6-2.4-24.9-3.7-7.8-1.2-15.7-2.1-23.4-3.9-15.9-3.6-31.9-7.1-47.6-11.6-12.1-3.5-23.9-7.9-35.7-12.2-8.6-3.1-17.2-6.5-25.6-10.1-9.4-3.9-18.6-8.1-27.7-12.7-9.8-4.8-19.2-10.1-28.8-15.1-16.8-8.7-32.6-19.1-48-30.2-11.4-8.3-22.6-16.9-33.5-25.9-9.7-8-19.1-16.2-28.3-24.7-19.3-18.2-37.2-37.8-53.5-58.9-16.9-21.9-31.6-45.3-44.8-69.5-8.5-15.4-15-31.9-21.9-48.1-3.5-8.4-6-17.2-8.6-25.9-3.5-11.8-7.1-23.4-9.9-35.3-2.1-8.5-3.5-17.1-4.5-25.8-1.4-11.5-2.1-23.1-3-34.6-.2-3.1-.4-6.2-.3-9.4.1-4 .3-8.1.5-12.1.2 0 .4.1.6.1l18.3 40.8c2.4-3.9 3.8-7.3 5.1-10.8 2-5.1 4.5-9.8 9-13.1 4.4-3.3 8.8-2.8 12.2 1.4 1.7 2.1 3.3 4.4 5.1 6.3 7.1 8.1 14.2 16.1 21.7 23.8 3 3.1 7 5.1 11.7 4.8 3.2-.2 4.4-1.7 3.8-4.8-.3-1.5-1-2.9-1.7-4.2-1.3-2.4-2.8-4.8-4.3-7.2 6.8-5.8 11.3-12.7 14.4-20.7 1.7-4.6 2.9-9.4 4.9-13.8 2-4.2 2-8.3 1.7-12.7-.1-1.1-.2-2.1-.2-3.1l1-26.9c.2-13.9-.2-27.8 2.3-41.5 1-5.5 4.5-8.4 10.8-8.2 10.4.3 20.6 2.5 30.5 5.7 20.4 6.4 40.2 14 58.4 25.2 4.8 3 8.3 2.4 12.2-1.7 1.7-1.8 3.1-3.8 4.8-5.6l7.1-7.7c2 3 3.5 5.4 5.3 7.7 1.2 1.6 2.6 2.3 5 .9 3.9-2.3 8.2-4.2 13-3.3 8.2 1.5 16.6 2.8 24 7.2 2.8 1.6 5.3 3.7 8.2 5.8 1-1.2 1.9-2.1 2.7-3.2 3.7-4.8 3-10.1 2-15.4-1.6-8.3-.4-11.6 6.9-16 4.4-2.6 8.8-5.3 13.3-7.7 2-1.1 4.2-1.8 7.2-3l-3.5 12.2c-.2.7 0 2.1.6 2.6 3.4 3 9.5 3 12.5-.3 2.6-3 4.7-6.7 6.7-10.2 4-7.1 9-12.8 17.5-14.4 3-.6 4.6.5 3.9 3.4-1.6 6.8-3.7 13.7-10.4 17.5-3.5 2-7.5 3.2-11.2 4.8 1.9 3.5 4.8 4.7 8.3 4.3 7.2-.8 13.5-4.3 19.6-7.9l23.5-14c1.9-1 4.4-.8 6.7-1.2 0 2.5.7 5.1.1 7.4-1.4 5.6-5 10-9.2 13.8-6.5 5.8-13.1 11.3-19.7 16.9-1.3 1.1-2.4 2.3-3.6 3.5 3.5-1.6 6.5-4 9.8-5.7 13.9-6.9 28.5-9.9 44-8.5 8.6.7 16.8 2.9 24.2 7.6 1 .6 1.9 1.8 2.1 2.9 1.2 5.3 4.3 9.5 8.9 12.1 5.2 2.9 10.7 5.1 16.1 7.6l9.8 4.4c-.1.2-.2.6-.2.8-53.2-7.8-104.5.4-154.9 18.1-.7-2.5-1.2-4.6-1.9-6.6l-11.5-36.4c-1.6-5.2-1.6-5.3-6.7-3.2.2.7.2 1.6.4 2.3l5.5 24.9c1.3 5.7 2.3 11.4 3.9 17 1.6 5.1 1.8 5.2-3 7.3-.5.2-1 .5-1.6.7-15.3 6.1-30.2 13-44.4 21.4-17.2 10.2-33.3 21.3-46.3 36.6-9.5 11.2-17.4 23-21.7 37.2-4.2 13.9-3.5 26.9 6.2 38.3 6.8 8 16.1 12.3 25.9 15.4 1.8.6 4 .6 5.8 0 11.3-3.4 22.6-6.7 33.6-10.7 8.7-3.2 17.4-2.5 25.9-.6 9.2 2.1 15.9 8.8 21.4 16.1 3.4 4.6 6.4 10.1 7.3 15.6 1.9 11.4-3.9 20.5-11.9 28.1-10.4 9.9-23.6 15.1-37 19.2-12 3.6-24.6 5.7-37 7.9-7.6 1.3-14.6 3.9-21.5 7.1-11.5 5.4-17.8 15.6-15 29.3 2.4 12 8 22.7 15.3 32.4 15.5 20.6 35.6 35.8 58.5 47.4 14.1 7.1 28.5 12.8 43.8 16.4 10.1 2.4 20.3 4.3 30.6 5.6 10.4 1.4 21 2 31.6 2.7 2.3.2 4.7-.3 7-.4 5.8-.2 11.8-.1 17.5-.7 3.6-.4 5.3.2 6.5 3.9 2 5.9 4.8 11.5 7.1 17 3.9-1 7.3-1.7 11.3-2.7l-2.7-15.3c-.9-5.3-.8-5.3 4.4-6.5l28.2-6.7c11.8-3 23.4-6.6 34.2-12.3 13.1-7 27-13.2 39.4-21.4 36.2-23.7 63.5-55.5 82.6-94.3 6.7-13.6 11.8-27.9 15.2-42.6 2.8-12.2 4.8-24.6 4.4-37.1-.2-10.3-.2-20.6-2.1-30.7-2.9-16.5-7.4-32.6-15.7-47.7-9.4-17.1-20.5-32.7-35.3-45.4-4.3-3.7-8.8-7.2-13.3-11l8.3-8.5c1.7 1.6 3.4 4.2 4.8 4.1 1.6-.1 3.3-2.5 4.4-4.2 1.3-2 2-4.5 3.4-6.5 1.9-2.6 4.2-5 6.2-7.5 4.4 3.4 5.8 3.7 10.5 3 3.3-.5 6.5-1 9.8-1.1 4.2-.2 6.6 2.5 6.1 6.7-.2 2.3-1 4.5-1.5 6.8-.1.2 0 .6 0 1 .7-.5 1.4-.8 2.2-1.3.8 1.6 1.3 3.2 2.2 4.6 2 3 1.5 5.8-.6 8.6-1.8 2.5-3.5 4.9-4.9 7.6-2.6 5.3-6.5 10.2-6 16.5.2 1.6 1.2 3.9 2.3 4.2 1.6.3 4-.2 5.3-1.4 1.7-1.6 2.8-4 3.9-6.2 2-4 3.2-8.5 6.7-11.8a109.53 109.53 0 0 0 2.5 2.9c4.4 4.9 8.5 9.8 14.5 13.1 5.3 3 10.9 4.8 17 4.6 4.4-.1 8.8-.7 13.1-1.2 5.3-.6 7.5-4.7 9.5-8.8.4-.7.8-1.4 1.3-2.1 3.5-5.1 8-9.2 14.6-8.6 4 .3 8.1 2 11.8 3.5 2.1.9 3.5 1.4 5.6-.1 5.1-3.7 9.5-3.1 13.6 1.6 1.5 1.6 2.6 3.6 3.9 5.4 3.7 5.3 7.3 10.8 11.2 16 1.6 2.1 3.9 2.1 6.1 1 3-1.5 5.5-8.6 4.1-11.5-1.6-3.4-4.8-4.1-8.1-4.4-6-.5-8.5-4.1-6.1-9.6 4.2-9.6 12.1-15 22.1-16.9 4.8-.9 8.1 2.9 7.4 7.6-1.2 8.1-5.6 14.7-9.6 21.6-2.5 4.3-6.3 8.1-6.2 13.5.2 4.2.5 8.5 1.2 12.6.5 2.8 1.9 5.3 5.2 5.9 3.4.6 6.4-.2 8.5-2.9 1.4-1.6 2.6-3.6 3.5-5.6 3.2-6.9 1.4-9.5-6.2-9-.2 0-.4-.2-.7-.3.7-10.9 8.6-15 17.8-18.5-1.4 3.3-3.3 6.2-3.9 9.2-2.3 10.8-4.4 21.8-6.1 32.7-1.4 9.5-3.8 18.3-10.1 25.6-1.7 2-3.7 3.8-5.6 5.7l6.3 7.6 9.6-8.1c5.9-4.8 11.8-9.6 17.9-14.1 3.4-2.3 7.2-3.9 11.6-2.6 2.3 10.4-.2 19.1-9.6 25.2-1.4.8-2.8 1.9-3.7 3.2-2 3-5 6.2-5 9.3-.1 5.8-2.7 7.6-7.4 9.3-4.3 1.6-8.1 4.7-12.2 6.7-3.2 1.6-6.7 1.3-9.8-.8.2-1.4.5-2.5.8-4.3l-16.8 12.5c-7.1 5.7-9.9 13.3-9 22.4.5 4.9 2.4 9.9-.7 15 52.9-11.3 101.9-32.4 151.1-52.9-9 7.1-18.1 14.3-27.5 20.7-9.5 6.5-19.6 11.6-30.4 14.7.3 2.3.4 4.2.7 6 .6 2.6-.7 4.3-2.9 5.3-5 2.5-9.9 5.3-15.2 7.1-14.5 4.9-29.3 9.4-44 14.1-1.7.5-3.5.9-6.3 1.6 2.9 2.3 4.8 4.1 7 5.5 7.5 4.7 15.2 9 22.8 13.6 4.3 2.6 8.4 5.6 12.7 8 7.9 4.3 16.4 2.7 24.7 1.2 9.9-1.7 20-3.9 29.6-7 11.3-3.5 22.1-8.1 33.2-12.2 2.1-.7 4.2-1.2 6.3-1.7.2.5.4.9.7 1.3-2.2 2.1-4.4 4.4-6.7 6.2-16.2 13.1-34.5 22.8-52.8 32.4-10.1 5.3-21 8.6-32.1 10.8-12.2 2.4-18.8.7-22.7-9.6-.6-1.5-1.2-3.1-1.9-4.5-1.7-3.2-3.4-6.4-5.4-9.4-1.7-2.5-3.8-2.1-5.2.6-1.2 2.3-2.4 4.8-3.1 7.3-2 6.4-7.9 8.8-13.3 4.7-2.7-2.1-4.9-4.9-7.1-7.6-3.2-4.2-5.8-8.8-9.2-12.8-7.3-8.5-6.4-9.5-17.8-1.7-4.2 2.8-8.5 4.7-13.4 5.6-4.1.7-8.3 1.7-12.4 2.6.1.5.2 1.1.2 1.6l23-2.5 1.1 8.7c0 .5.1.9.1 1.2-28.9 8.4-58.2 13.2-87.8 16.8.1.8 0 1.4.1 2 .8 8.5.4 9-8 8.5-.7 0-1.4-.1-2.1-.2-4.5-.7-6.4.4-6.3 4.9.1 2.3 1.4 5.2 3 6.9 1.9 1.9 4.7 3.1 7.3 4 11.1 3.9 22.8 5 34.3 5.3 14 .2 27.9-.7 41.9-1.2 5.3-.2 10.4-.7 15.9-1l.8 13.7-7.4 1.5-7.2 1.2 1 6.5c35.3-4.7 70.3-9.7 103.8-25.4-.9 7.3-6.7 9.9-10.5 14.6 1.6-.3 2.5-.4 3.4-.7l43.6-15.4c15.4-5.3 30.7-11.4 46.9-14 1.3-.2 3.6.5 4 1.4.7 1.7 1.1 4.1.4 5.8-2.8 6.5-7.6 11.8-13.7 15-17.2 9.2-35.3 16.4-54.2 21.7l-12.2 3.8 2.1 4.6 18.7-6.2 33.5-11.2c.9-.2 2.1.2 3.2.3-.2 1.1 0 2.4-.6 3.3-1.6 2.5-3.5 4.9-5.2 7.5-.7.9-.6 2.3-.8 3.5 1.3.2 2.7.8 3.9.5 3.1-.8 6.1-2.3 9.3-3 8.8-2 17.6-3.7 26.4-5.5 1.6-.3 3.1-.6 4.7-.8-7.1 4.4-14.1 8.9-21.5 12-21.1 8.8-42.5 17.1-63.8 25.4-3.2 1.2-3.7 3.5-3.6 6 .1 3 2.7 3.5 4.9 3.5 4.7-.1 9.4-.4 14-.8 3.5-.2 7-.8 10.5-1.2.1.2.2.4.2.7l-36.9 28.1 22.8-5.7c.1.6.3.9 0 1.8zm-387.8 68.6c-6.4-6-10.6-13.1-9-22.4 1.1-5.8 2.6-11.6 3.9-17.4 2.2-10.4-3.4-22.4-10.3-27-4.4-2.9-10.3-2.1-16.1 2.3 3.2 5.8.3 10-3.3 14.7-4.8 6.2-6 14.1-6.9 21.8-1.8 14.9 11.8 29 22.6 32.5 2.6.8 5.1 2.4 7.7 3.1 6 1.6 12 1.1 18-.3.4-.1.7-.5 1.2-.9-2.7-2.1-5.5-4.1-7.8-6.4z"/><path d="M1031.5 257.2c2 6.4 3.5 12.9 5.5 19.2l13.6 43.1 14.9 50.4 14.5 46.8 15.4 50.2 12.4 42.3c2.5 9 4.5 18.3 6.6 27.5l7.5 36c1.2 5.3 2.1 10.8 3 16.2l2.3 14.5-16.2.8c-.5.1-1.3-.8-1.6-1.4-3.3-8.5-6.5-17-9.5-25.6-2.1-5.8-3.7-11.8-5.6-17.7l-15.1-47.7c-3.5-12-6.1-24.2-9-36.3l-5.3-22.1c-1.5-7-2.5-14.1-4.1-21l-8.5-33.9-7.9-34.1-12-50-7.1-30.7-8.2-37.6c-1.8-8.5-1.9-8.5 6.7-10.3.1 0 .2 0 .5.1l7.2 21.3zm13.7 238.2c5.9 13.7 3 26.8-3.9 39.2-4.9 8.9-12.2 15.7-21 20.6-14.9 8.2-30.6 11.4-46.8 5.6-21.3-7.6-27-24.7-23.3-44 1.6-8.5 6.1-16.4 12.3-22.8 14.6-15 32-22.8 53.5-19.4 9.5 1.5 17.5 5.3 23.9 12.7 1.7 2.7 4 5.3 5.3 8.1zm209.4-123c6.3-3 12.4-7.6 19.1-8.8 14.4-2.5 26.2 2.7 29.7 18.4 2.1 9.4 1.1 18.5-3.1 27.6-5 10.8-11.7 19.6-21.7 25.9-6.3 3.9-13.5 6.2-20.6 5.8-13.8-1-24.2-14.5-23.1-28.4 1.3-15.9 8-29.1 20.1-39.4-.1-.4-.3-.8-.4-1.1zm1.8 18.7c-4.4 6.3-6.9 13-4.4 21.6 4.4-14.7 12.4-26 24.5-34.8-9.3.9-15.2 6.3-20.1 13.2zm-38.5-106.5c8.3-5.3 16.8-9.6 27.2-7.2 7.6 1.8 13.4 5.8 16.3 13.1 4.2 10.5 3.8 21-.7 31.6-4.9 11.6-11.7 21.6-22.9 27.4-5.8 3-12.7 6-18.8 5.4-17.4-1.6-23.8-12-23.7-29.3.2-15.7 8.1-28.2 19.8-38.4.9-1 1.8-2 2.8-2.6zm-5.8 40.6c3.1-5.7 5.9-12.2 9.9-17.7 4-5.7 9.2-10.5 13.4-15.1-12.7-.4-27.8 20.4-23.3 32.8zm24.1 206.2c-15.1 5.8-31.2-1.8-33.7-19.4-1.3-9.2-.2-18.3 4.4-27.1 5.8-10.8 12.9-20.1 24-25.6 5.9-3 12.2-5.2 18.9-4.2 12.2 1.8 22 13.9 21.7 26.5-.4 16.8-7.7 30.5-19.9 42.2-5.2 2.6-10.1 5.6-15.4 7.6zm9.3-63.3c-4.2-.3-7.5 1.2-10.6 3.1-8.6 5.3-13.1 13.6-15.4 22.9-.6 2.3.5 4.9.8 7.4 4.5-14.1 14-24 25.2-33.4zm-89.9-226.3c11.3.2 20.1 4.8 23.5 19.1 2.7 11.5.7 22.4-5.4 32.6-4.2 6.9-8.8 13.4-15.4 18-8.4 5.9-17.5 10.3-28.4 7.7-7.4-1.7-12.8-5.8-15.9-12.9-3.5-7.8-3.5-15.9-1.7-24 2.7-11.9 9.4-21.8 18.3-30 7.1-6.5 15.9-10.6 25-10.5zm-20.9 23c-5 6.7-8.4 14.1-6.2 22.9 4.5-13.9 13.6-24.3 25-33.6-8.6-.1-14.2 4.6-18.8 10.7zm-184.4-81.5c-3.9.7-7.1-.5-9-3.9-1.9-3.5-3.5-7.1-5-10.8-1.6-3.7-2.3-7.7-4.4-11.1-4.9-8.1-6.6-16.6-4.8-25.9 1-5.2 3-7.2 8.3-6.5 3.1.4 6.2 1.7 9.3 2.8 8.4 2.9 14.9 7.8 16.2 17.1.7 5 1.1 10.3.3 15.3-1.2 7.4-3.4 14.7-5.1 22.1-2.2.4-4 .4-5.8.9zm433.1 47.5c3.1-9.9 10.8-16 18.6-22 5.3 12 .2 28.7-9.1 35.7.9-9.3-1-12.2-9.5-13.7zm-247.9-86.2c-3.1-4.6-.2-6.7 2.5-9.1 2.1-1.8 4.2-3.7 6.6-5.2 3-1.8 6.2-2.9 10-2.1-2.2 5.2-4.1 10.3-6.7 14.9-2.5 4.7-6.1 8.8-11.7 10.5-.1-3.1.8-6.8-.7-9zm169.9 67.3c1.7-2.9 6.7-4.3 9.9-2.8 2.8 1.2 3.5 3.5 1.6 7.8-1.1 2.5-2.6 4.8-4.4 7-1.7 2.2-3.9 1.6-6-.3-2.1-2.3-2.8-8.7-1.1-11.7zM1531.7 436c.9.2 2.4 1.8 2.2 2.1-1.2 2.5-2.1 6-4.2 7-4.4 2.1-9.4.7-14.2 0 2.3-5.4 11-10.1 16.2-9.1z"/></svg>