<?xml version="1.0" encoding="utf-8"?>
<!-- Generator: Adobe Illustrator 19.0.0, SVG Export Plug-In . SVG Version: 6.00 Build 0)  -->
<svg version="1.1" id="Layer_1" xmlns="http://www.w3.org/2000/svg" xmlns:xlink="http://www.w3.org/1999/xlink" x="0px" y="0px"
	 viewBox="494 146 1600 502" style="enable-background:new 494 146 1600 502;" xml:space="preserve">
<style type="text/css">
	.st0{fill:#173C7E;}
</style>
<ellipse transform="matrix(-0.465 -0.8853 0.8853 -0.465 1838.1985 1435.3589)" class="st0" cx="1352.8" cy="162.3" rx="8.7" ry="7.8"/>
<ellipse transform="matrix(-0.465 -0.8853 0.8853 -0.465 1784.2687 1415.0006)" class="st0" cx="1319.7" cy="168.4" rx="9.4" ry="8.4"/>
<path class="st0" d="M1294.8,171.8c2.6,4.9,1.1,10.8-3.2,13c-4.4,2.3-10,0.2-12.6-4.7c-2.6-4.9-1.1-10.8,3.2-13
	C1286.7,164.8,1292.2,166.9,1294.8,171.8z"/>
<ellipse transform="matrix(-0.465 -0.8853 0.8853 -0.465 1673.4918 1381.5975)" class="st0" cx="1254.2" cy="185.1" rx="10.7" ry="9.5"/>
<ellipse transform="matrix(-0.465 -0.8853 0.8853 -0.465 1616.652 1368.6881)" class="st0" cx="1221.9" cy="195.9" rx="11.4" ry="10.2"/>
<ellipse transform="matrix(-0.465 -0.8853 0.8853 -0.465 1559.3235 1357.9993)" class="st0" cx="1190" cy="207.8" rx="12" ry="10.8"/>
<ellipse transform="matrix(-0.465 -0.8853 0.8853 -0.465 1501.0253 1349.5905)" class="st0" cx="1158.3" cy="221.3" rx="12.7" ry="11.4"/>
<ellipse transform="matrix(-0.465 -0.8853 0.8853 -0.465 1442.1141 1343.8021)" class="st0" cx="1127.1" cy="236.2" rx="13.3" ry="12"/>
<ellipse transform="matrix(-0.465 -0.8853 0.8853 -0.465 1382.6074 1340.2827)" class="st0" cx="1096.3" cy="252.4" rx="14" ry="12.6"/>
<ellipse transform="matrix(-0.465 -0.8853 0.8853 -0.465 1322.873 1338.9003)" class="st0" cx="1066" cy="269.7" rx="14.7" ry="13.2"/>
<path class="st0" d="M1048.4,282.2c3.9,7.5,1.7,16.4-5.1,20c-6.7,3.6-15.4,0.3-19.3-7.2c-3.9-7.5-1.7-16.4,5.1-20
	C1035.7,271.5,1044.4,274.8,1048.4,282.2z M1019.6,302c4.1,7.9,1.7,17.2-5.3,20.9s-16.1,0.4-20.2-7.5s-1.7-17.2,5.3-20.9
	C1006.4,290.9,1015.4,294.2,1019.6,302z"/>
<ellipse transform="matrix(-0.465 -0.8853 0.8853 -0.465 1134.9817 1350.9875)" class="st0" cx="975.7" cy="332.6" rx="16.7" ry="15"/>
<path class="st0" d="M960.2,347.9c4.1,7.9,1.7,17.2-5.3,20.9s-16.1,0.4-20.2-7.5s-1.7-17.2,5.3-20.9
	C947.1,336.7,956.2,340.2,960.2,347.9z M929.9,374.2c3.9,7.5,1.7,16.4-5.1,20c-6.7,3.6-15.4,0.3-19.3-7.2s-1.7-16.4,5.1-20
	S926,366.7,929.9,374.2z"/>
<ellipse transform="matrix(-0.465 -0.8853 0.8853 -0.465 940.8505 1384.3119)" class="st0" cx="888.7" cy="407.9" rx="14.7" ry="13.2"/>
<ellipse transform="matrix(-0.465 -0.8853 0.8853 -0.465 874.2202 1401.2302)" class="st0" cx="860.5" cy="436.5" rx="14" ry="12.6"/>
<path class="st0" d="M843.8,460.7c3.4,6.5,1.4,14.3-4.5,17.4s-13.4,0.3-16.8-6.2s-1.5-14.3,4.5-17.4S840.4,454.3,843.8,460.7z"/>
<ellipse transform="matrix(-0.465 -0.8853 0.8853 -0.465 741.6138 1442.9076)" class="st0" cx="806.8" cy="497.4" rx="12.7" ry="11.4"/>
<ellipse transform="matrix(-0.465 -0.8853 0.8853 -0.465 675.7177 1467.8505)" class="st0" cx="781.4" cy="529.8" rx="12" ry="10.8"/>
<ellipse transform="matrix(-0.465 -0.8853 0.8853 -0.465 610.2747 1495.1086)" class="st0" cx="756.9" cy="563.2" rx="11.4" ry="10.2"/>
<ellipse transform="matrix(-0.465 -0.8853 0.8853 -0.465 545.6128 1525.0067)" class="st0" cx="733.6" cy="597.6" rx="10.7" ry="9.6"/>
<path class="st0" d="M719.3,629.2c2.6,4.9,1.1,10.8-3.2,13c-4.4,2.3-10,0.2-12.6-4.7s-1.1-10.8,3.2-13
	C711.2,622.1,716.7,624.2,719.3,629.2z"/>
<ellipse transform="matrix(-0.465 -0.8853 0.8853 -0.465 418.1444 1592.6155)" class="st0" cx="690.3" cy="670" rx="9.4" ry="8.4"/>
<ellipse transform="matrix(-0.465 -0.8853 0.8853 -0.465 355.613 1630.2006)" class="st0" cx="670.4" cy="707.7" rx="8.7" ry="7.8"/>
<ellipse transform="matrix(-0.465 -0.8853 0.8853 -0.465 303.8498 1665.5159)" class="st0" cx="655.2" cy="740.9" rx="6.8" ry="6.1"/>
<ellipse transform="matrix(-0.465 -0.8853 0.8853 -0.465 1884.5754 1453.1967)" class="st0" cx="1381.4" cy="157.2" rx="6.8" ry="6.1"/>
<path class="st0" d="M1865.2,314.3l-23-5.7l37.2,28.4c-0.1,0.2-0.2,0.4-0.2,0.7c-3.6-0.4-7-1-10.6-1.2c-4.6-0.4-9.4-0.7-14.1-0.8
	c-2.2,0-4.9,0.5-5,3.5c-0.1,2.6,0.4,4.8,3.6,6.1l64.3,25.6c7.5,3.2,14.5,7.7,21.7,12.1c-1.6-0.2-3.2-0.5-4.7-0.8l-26.6-5.6
	c-3.2-0.7-6.2-2.2-9.4-3.1c-1.2-0.3-2.6,0.3-3.9,0.5c0.2,1.2,0.2,2.7,0.8,3.6c1.7,2.6,3.6,5,5.2,7.5c0.6,0.9,0.4,2.2,0.6,3.3
	c-1.1,0.1-2.3,0.6-3.2,0.3l-33.8-11.3l-18.9-6.2c-0.7,1.6-1.3,2.8-2.2,4.6c4.3,1.3,8.2,2.7,12.3,3.8c19,5.3,37.3,12.6,54.6,21.9
	c6.2,3.3,11,8.6,13.8,15.2c0.7,1.7,0.3,4.1-0.4,5.8c-0.4,0.9-2.7,1.6-4.1,1.4c-16.4-2.6-31.8-8.8-47.3-14.1l-43.9-15.5
	c-0.8-0.3-1.7-0.4-3.4-0.7c3.8,4.8,9.7,7.4,10.6,14.8c-33.7-15.8-69.1-20.9-104.7-25.6l-1,6.5l7.3,1.2c2.3,0.4,4.6,0.9,7.5,1.5
	l-0.8,13.8l-16.1-1c-14.1-0.5-28.2-1.4-42.3-1.2c-11.7,0.2-23.5,1.3-34.7,5.3c-2.7,0.9-5.5,2.2-7.4,4.1c-1.7,1.7-3,4.6-3.1,7
	c-0.1,4.6,1.8,5.7,6.4,5c0.7-0.1,1.4-0.2,2.1-0.2c8.5-0.4,8.9,0.1,8,8.6c-0.1,0.6,0,1.2-0.1,2c29.9,3.6,59.4,8.5,88.6,16.9
	c0,0.3-0.1,0.7-0.1,1.2l-1.1,8.8l-23.2-2.5c-0.1,0.5-0.2,1.1-0.2,1.6l12.5,2.7c5,0.9,9.3,2.8,13.5,5.6c11.5,7.8,10.6,6.9,18-1.7
	c3.4-4.1,6.1-8.7,9.3-12.9c2.2-2.7,4.4-5.6,7.1-7.7c5.5-4.1,11.4-1.7,13.4,4.7c0.7,2.6,1.9,5.1,3.2,7.4c1.4,2.7,3.5,3.1,5.2,0.6
	c2.1-3,3.7-6.2,5.5-9.5c0.7-1.4,1.3-3.1,1.9-4.6c3.9-10.4,10.5-12.1,22.9-9.7c11.3,2.2,22.2,5.6,32.4,10.9
	c18.5,9.7,37,19.5,53.3,32.7c2.4,1.9,4.6,4.2,6.8,6.3c-0.2,0.4-0.4,0.8-0.7,1.3c-2.2-0.6-4.3-1-6.4-1.7
	c-11.2-4.1-22.1-8.7-33.5-12.3c-9.7-3.1-19.8-5.3-29.8-7c-8.3-1.5-16.9-3.1-24.9,1.2c-4.4,2.4-8.5,5.4-12.8,8l-23,13.8
	c-2.2,1.4-4.1,3.2-7,5.6c2.8,0.7,4.6,1.2,6.4,1.7L1838,511c5.3,1.8,10.3,4.7,15.3,7.2c2.2,1.1,3.5,2.7,2.9,5.4
	c-0.3,1.8-0.4,3.7-0.7,6.1c10.9,3.2,21.1,8.3,30.7,14.8c9.5,6.5,18.7,13.7,27.8,20.9c-49.7-20.7-99.1-42-152.5-53.4
	c3.1,5.1,1.2,10.1,0.7,15.1c-0.9,9.1,1.9,16.8,9.1,22.5c5.3,4.2,10.9,8.1,16.9,12.6c-0.3-1.7-0.6-2.9-0.8-4.3
	c3.2-2.2,6.6-2.4,9.9-0.8c4.2,2.1,8,5.2,12.4,6.8c4.7,1.7,7.4,3.6,7.5,9.4c0,3.2,3.1,6.4,5.1,9.4c0.9,1.3,2.3,2.4,3.7,3.2
	c9.5,6.1,12,14.9,9.7,25.5c-4.4,1.3-8.3-0.3-11.7-2.7c-6.2-4.5-12.1-9.4-18.1-14.2l-9.7-8.1l-6.4,7.6c1.9,1.9,3.9,3.7,5.6,5.7
	c6.4,7.4,8.8,16.3,10.2,25.9c1.7,11,3.8,22.1,6.1,33c0.7,3.1,2.6,6,4,9.3c-9.3-3.6-17.2-7.6-18-18.7c0.2-0.2,0.4-0.3,0.7-0.3
	c7.7,0.5,9.5-2.2,6.3-9.1c-0.9-2-2.2-4-3.6-5.6c-2.2-2.7-5.2-3.5-8.6-2.9c-3.3,0.6-4.7,3.2-5.2,6c-0.7,4.1-1,8.5-1.2,12.7
	c-0.2,5.5,3.7,9.3,6.2,13.6c4.1,7,8.5,13.6,9.7,21.8c0.7,4.8-2.7,8.6-7.5,7.7c-10.1-2-18.1-7.4-22.3-17.1c-2.4-5.6,0.1-9.2,6.1-9.7
	c3.4-0.3,6.6-1.1,8.2-4.5c1.4-2.9-1.2-10.1-4.1-11.6c-2.2-1.1-4.6-1.1-6.1,1c-3.9,5.3-7.5,10.8-11.3,16.2c-1.2,1.8-2.4,3.8-3.9,5.5
	c-4.1,4.7-8.5,5.3-13.7,1.6c-2.1-1.5-3.6-1-5.6-0.1c-3.8,1.6-7.9,3.2-11.9,3.6c-6.7,0.6-11.2-3.6-14.8-8.7c-0.5-0.7-0.9-1.4-1.3-2.1
	c-2.1-4.1-4.2-8.3-9.6-8.9c-4.4-0.4-8.8-1.1-13.3-1.2c-6.1-0.2-11.8,1.7-17.2,4.6c-6,3.3-10.2,8.2-14.6,13.2
	c-0.7,0.9-1.5,1.7-2.5,2.9c-3.6-3.3-4.8-7.8-6.8-11.9c-1.1-2.2-2.2-4.6-3.9-6.2c-1.2-1.2-3.7-1.7-5.3-1.4c-1.1,0.2-2.2,2.7-2.3,4.2
	c-0.5,6.4,3.4,11.4,6.1,16.7c1.4,2.7,3.2,5.2,5,7.7c2.1,2.8,2.6,5.6,0.6,8.7c-0.9,1.4-1.4,3-2.2,4.6c-0.8-0.5-1.5-0.8-2.2-1.3
	c0,0.4-0.1,0.7,0,1c0.5,2.3,1.2,4.6,1.5,6.9c0.5,4.2-1.9,6.9-6.1,6.7c-3.3-0.1-6.5-0.6-9.9-1.1c-4.8-0.7-6.1-0.3-10.6,3.1
	c-2.1-2.5-4.4-4.9-6.3-7.5c-1.4-2-2.1-4.6-3.4-6.5c-1.2-1.7-2.9-4.1-4.5-4.2c-1.4-0.1-3.1,2.5-4.8,4.1l-8.4-8.6l13.4-11.1
	c14.9-12.8,26.2-28.6,35.6-45.8c8.4-15.2,12.9-31.4,15.8-48.1c1.8-10.1,1.8-20.6,2.1-30.9c0.4-12.7-1.6-25.1-4.4-37.5
	c-3.4-14.9-8.5-29.3-15.3-43c-19.2-39.2-46.8-71.2-83.3-95.2c-12.5-8.2-26.4-14.5-39.7-21.6c-10.9-5.8-22.5-9.5-34.5-12.4l-28.4-6.8
	c-5.3-1.2-5.4-1.2-4.5-6.5l2.7-15.4l-11.4-2.7c-2.4,5.6-5.2,11.2-7.2,17.2c-1.2,3.7-2.9,4.4-6.5,4c-5.8-0.7-11.8-0.5-17.7-0.7
	c-2.3-0.1-4.7-0.6-7-0.4c-10.7,0.7-21.4,1.3-31.9,2.7c-10.4,1.3-20.6,3.2-30.8,5.6c-15.4,3.6-30,9.5-44.2,16.6
	c-23.1,11.7-43.4,27-59,47.8c-7.4,9.8-13,20.6-15.4,32.7c-2.8,13.8,3.6,24,15.2,29.5c7,3.2,14.1,5.9,21.7,7.2
	c12.5,2.2,25.2,4.3,37.3,8c13.5,4.1,26.8,9.5,37.3,19.4c8.1,7.6,13.9,16.8,12,28.4c-0.9,5.6-4,11.1-7.4,15.8
	c-5.6,7.4-12.4,14.1-21.6,16.2c-8.5,2-17.3,2.7-26.1-0.6c-11.1-4.1-22.5-7.4-33.9-10.8c-1.8-0.6-4.1-0.6-5.9,0
	c-9.9,3.1-19.2,7.5-26.1,15.5c-9.8,11.5-10.5,24.6-6.3,38.6c4.3,14.3,12.4,26.3,21.9,37.6c13.1,15.4,29.3,26.6,46.7,36.9
	c14.3,8.5,29.3,15.5,44.8,21.6c0.6,0.2,1.1,0.5,1.6,0.7c4.8,2.2,4.6,2.2,3,7.4c-1.7,5.6-2.7,11.4-4,17.2l-5.6,25.1
	c-0.2,0.7-0.2,1.6-0.4,2.3c5.1,2.2,5.1,2,6.7-3.2l11.6-36.7c0.7-2,1.2-4.1,1.9-6.6c50.8,17.8,102.6,26.1,156.3,18.2
	c0.1,0.2,0.2,0.6,0.2,0.8l-9.9,4.4c-5.5,2.5-11,4.7-16.2,7.6c-4.6,2.6-7.7,6.8-9,12.2c-0.2,1.1-1.2,2.3-2.2,2.9
	c-7.5,4.7-15.7,6.9-24.4,7.6c-15.7,1.4-30.4-1.7-44.4-8.6c-3.3-1.7-6.3-4.1-9.9-5.7c1.2,1.2,2.3,2.5,3.6,3.6l19.9,17.1
	c4.2,3.8,7.9,8.3,9.3,13.9c0.6,2.3-0.1,5-0.1,7.5c-2.2-0.4-4.8-0.2-6.7-1.2c-8-4.5-15.8-9.4-23.7-14.1c-6.2-3.6-12.5-7.1-19.8-8
	c-3.6-0.4-6.5,0.8-8.4,4.3c3.7,1.6,7.7,2.8,11.3,4.8c6.7,3.8,8.8,10.8,10.4,17.7c0.7,2.9-0.8,4-3.9,3.4c-8.6-1.6-13.6-7.4-17.7-14.5
	c-2.1-3.6-4.1-7.2-6.8-10.3c-3-3.4-9.2-3.3-12.6-0.3c-0.6,0.5-0.7,1.9-0.6,2.7c1,3.8,2.2,7.6,3.5,12.4c-3.1-1.2-5.3-2-7.3-3.1
	c-4.6-2.5-9-5.1-13.4-7.8c-7.4-4.5-8.6-7.8-7-16.2c1.1-5.4,1.7-10.8-2-15.6c-0.8-1.1-1.7-2.1-2.7-3.2c-2.9,2.1-5.5,4.1-8.3,5.8
	c-7.5,4.5-15.9,5.8-24.2,7.3c-4.8,0.9-9.1-1-13.1-3.3c-2.4-1.4-3.8-0.7-5.1,0.9c-1.8,2.3-3.3,4.8-5.3,7.8l-7.1-7.8
	c-1.7-1.8-3.1-3.8-4.8-5.6c-3.9-4.1-7.5-4.7-12.3-1.7c-18.4,11.4-38.4,19-58.9,25.5c-9.9,3.2-20.2,5.4-30.8,5.7
	c-6.3,0.2-9.9-2.7-10.9-8.3c-2.6-13.8-2.2-27.9-2.3-41.9c-0.1-9-0.7-18.1-1-27.1c0-1.1,0.2-2.1,0.2-3.2c0.2-4.4,0.2-8.5-1.7-12.8
	c-2.1-4.5-3.2-9.3-5-13.9c-3.1-8-7.6-15.1-14.5-20.9c1.5-2.5,3-4.9,4.3-7.3c0.7-1.3,1.4-2.7,1.7-4.2c0.7-3.2-0.6-4.6-3.8-4.9
	c-4.7-0.3-8.7,1.7-11.8,4.8c-7.5,7.8-14.7,15.9-21.9,24c-1.8,2-3.4,4.2-5.1,6.4c-3.5,4.2-7.9,4.7-12.4,1.4c-4.6-3.3-7.1-8-9.1-13.2
	c-1.3-3.5-2.7-7-5.1-10.9l-18.5,41.1c-0.2,0-0.4,0.1-0.6,0.1l-0.5-12.2c-0.1-3.2,0.1-6.3,0.3-9.5c0.9-11.6,1.6-23.3,3-34.9
	c1-8.8,2.5-17.5,4.6-26c2.9-12,6.5-23.8,10-35.6c2.7-8.8,5.1-17.7,8.7-26.1c7-16.3,13.6-33,22.1-48.5c13.3-24.5,28.1-48,45.2-70.1
	c16.4-21.3,34.5-41,54-59.4c9.2-8.6,18.7-16.9,28.5-25c11-9,22.3-17.7,33.8-26.1c15.5-11.2,31.4-21.6,48.4-30.4l29.1-15.3
	c9.2-4.6,18.5-8.8,27.9-12.8c8.5-3.6,17.2-7,25.9-10.2c11.9-4.3,23.9-8.8,36.1-12.3c15.8-4.5,31.9-8,48-11.7
	c7.8-1.7,15.8-2.7,23.6-3.9c8.4-1.3,16.7-2.8,25.1-3.7c9.1-0.9,18.2-1.2,27.4-1.8c3.3-0.2,6.5-0.9,9.9-0.9l29.9,0.4
	c12.4,0.3,24.7,0.5,37.1,1.3c9.7,0.7,19.4,2.2,29.1,3.6c7.2,1,14.4,2.1,21.6,3.5c10,2,20.2,3.7,30,6.6c19.8,5.9,39.8,11.7,59.1,19
	c18.5,7,36.7,14.8,54.1,24.2c20.1,10.9,40,22.3,58.1,36.4c3.5,2.7,7,5.1,10.5,7.7C1865.4,313.7,1865.3,314.1,1865.2,314.3
	L1865.2,314.3z M1481.8,237.1c-0.5-0.4-0.8-0.8-1.2-0.9c-6.1-1.4-12.1-2-18.2-0.3c-2.7,0.7-5.1,2.3-7.8,3.2
	c-10.9,3.6-24.6,17.8-22.8,32.8c0.9,7.8,2.1,15.7,7,22c3.6,4.7,6.5,9,3.3,14.8c5.9,4.5,11.8,5.2,16.2,2.3c7-4.6,12.6-16.7,10.4-27.2
	c-1.2-5.9-2.8-11.7-3.9-17.6c-1.7-9.3,2.6-16.5,9-22.5C1476.2,241.3,1479,239.3,1481.8,237.1L1481.8,237.1z"/>
<path class="st0" d="M1346.2,709.5c-0.3,0.1-0.4,0.1-0.5,0.1c-8.7-1.8-8.6-1.8-6.8-10.4l8.3-37.9l7.1-30.9l12.1-50.4l8-34.4
	l8.6-34.2c1.7-7,2.7-14.1,4.1-21.1c1.6-7.5,3.5-14.9,5.3-22.3c3-12.3,5.6-24.5,9.1-36.6c4.7-16.2,10.1-32.1,15.3-48.2l5.6-17.9
	l9.6-25.8c0.2-0.6,1.1-1.5,1.6-1.4l16.3,0.8l-2.3,14.6c-0.9,5.5-1.8,10.9-3,16.3l-7.5,36.3c-2.1,9.3-4.1,18.7-6.6,27.8l-12.5,42.7
	l-15.5,50.7l-14.6,47.2l-15,50.8l-13.8,43.4c-2,6.4-3.6,12.9-5.6,19.4C1351.3,695.2,1348.7,702.2,1346.2,709.5L1346.2,709.5z
	 M1362,456.1c-6.5,7.4-14.5,11.3-24.1,12.8c-21.7,3.4-39.2-4.5-54-19.6c-6.3-6.5-10.8-14.5-12.4-23c-3.8-19.5,2-36.7,23.5-44.4
	c16.4-5.9,32.2-2.7,47.3,5.6c9,5,16.2,11.9,21.2,20.8c7,12.5,9.9,25.7,3.9,39.5C1366,450.7,1363.8,453.3,1362,456.1L1362,456.1z
	 M1579.1,570.9c-12.3-10.4-19-23.7-20.3-39.8c-1.2-14.1,9.4-27.7,23.3-28.7c7.2-0.5,14.4,1.8,20.8,5.8c10.1,6.3,16.8,15.3,21.9,26.1
	c4.2,9.2,5.2,18.4,3.2,27.9c-3.5,15.8-15.4,21.1-29.9,18.6c-6.8-1.2-12.9-5.8-19.3-8.9C1578.8,571.5,1578.9,571.2,1579.1,570.9
	L1579.1,570.9z M1600.7,566.3c-12.2-8.9-20.2-20.2-24.7-35.1c-2.6,8.7-0.1,15.4,4.4,21.8C1585.4,560,1591.4,565.4,1600.7,566.3z
	 M1575.5,419c12.3,11.9,19.6,25.6,20.1,42.6c0.3,12.8-9.5,25-21.9,26.8c-6.7,1-13.1-1.2-19.1-4.2c-11.2-5.6-18.4-14.8-24.2-25.8
	c-4.6-8.9-5.7-18.1-4.4-27.4c2.5-17.7,18.7-25.5,34-19.6C1565.4,413.6,1570.4,416.5,1575.5,419L1575.5,419z M1544,441.6
	c-0.3,2.5-1.4,5.1-0.8,7.5c2.4,9.5,6.9,17.8,15.6,23.1c3.2,1.9,6.5,3.5,10.7,3.2C1558.2,465.9,1548.6,455.9,1544,441.6L1544,441.6z"
	/>
</svg>
