<?xml version="1.0" encoding="utf-8"?>
<!-- Generator: Adobe Illustrator 28.1.0, SVG Export Plug-In . SVG Version: 6.00 Build 0)  -->
<svg version="1.1" id="Layer_1" xmlns="http://www.w3.org/2000/svg" xmlns:xlink="http://www.w3.org/1999/xlink" x="0px" y="0px"
	 viewBox="0 0 125 125" style="enable-background:new 0 0 125 125;" xml:space="preserve">
<style type="text/css">
	.st0{fill:#1859A9;}
</style>
<g transform="translate(0.000000,700.000000) scale(0.100000,-0.100000)">
	<path class="st0" d="M185.6,6996.8c-93.2-16.8-166.3-90.5-182.6-184c-4.1-23.2-4.1-852.5,0-875.7c8.2-46.6,28.6-85.7,62.5-119.9
		c26.2-26.6,54.4-44.3,89.2-55.9c34.6-11.6,5.4-10.9,470.2-10.9s435.6-0.7,470.2,10.9c79.4,26.6,137.4,93.9,151.7,176
		c4.1,23.2,4.1,852.5,0,875.7c-14.1,81.2-72.1,149.2-149,174.9c-37.7,12.7-4.5,11.8-474.5,11.6
		C270,6999.3,197.1,6998.9,185.6,6996.8z M609.8,6891.3c25.9-29.4,41.2-39.8,64.2-43.4c26.1-4.1,51.4-18.2,71.2-39.6
		c8.2-8.7,11.8-11.6,11.8-9.3c0,12.8,4.1,46.6,5.9,48.7c3.2,3.9,12.7,7.3,17.1,6.1c9.8-2.5,37.1-47.8,45-74.6c2-6.8,4.1-13.6,4.5-15
		c0.5-1.6,2.9-0.5,7.7,3.9c8.7,7.9,13,9.3,19.3,6.2c10.5-5,9.6-13.9-3.6-31.4c-5.4-7.3-5.7-8.7-5.5-21.4c0.2-16.4,4.8-30,21.2-62.8
		c15.3-30.7,20.7-48,21.8-71.6c0.7-11.2,0.2-23.7-1.1-31.2c-4.3-24.1-18.4-51.9-35.9-70.5c-8.6-9.1-10.9-10.5-18-11.6l-8.4-1.1
		l-1.2,7.3c-1.2,7.1-0.9,7.7,10.5,20.2c24.1,25.9,35.9,60.7,31.4,92.4c-2.7,19.8-6.8,31.2-20.7,59.2c-12.3,24.6-22.1,51.2-22.1,60
		c0,7-1.6,11.1-4.5,11.1c-5,0-8.2,7.3-11.6,26.4c-2,11.1-5.7,25.3-8,31.9c-5,13-17,36.2-18.9,36.2c-0.5,0-1.8-8.7-2.3-19.5
		c-1.2-16.8-2-20-5.2-23c-13.2-12-26.8-9.6-36.4,6.2c-13.7,22.3-39.6,39.1-68.3,44.4c-28.2,5.2-47.5,17.1-70.3,43.9l-6.4,7.5
		l-13.6-13.2c-15.5-15.5-23.9-30.3-23.9-42.3c0-10.2-5.9-16.6-15-16.6c-5.7,0-6.8,0.9-12.7,10.7c-3.6,5.9-7.3,10.7-8.2,10.7
		c-2.5,0-9.3-15.9-14.3-33c-2.9-10.2-4.1-19.3-4.3-32.1c-0.4-21.4-1.4-25.2-8-28.6c-10.5-5.5-19.6-1.6-31.4,13.2
		c-3.7,5-7.5,8.9-8.2,9.1c-0.5,0-2.9-5.9-5-12.8c-5.7-18.7-20-54.3-32.5-79.9c-5.9-12.3-12.1-26.6-13.9-31.6
		c-10.2-28.6-3.7-68.5,18-111.7l8.9-17.7l-2-13.6c-1.1-7.5-2.1-13.9-2.7-14.3c-5.5-5.5-34.8,50.7-43.7,84.4
		c-5.5,20.2-6.8,54.8-2.9,70.5c1.6,6.4,9.3,25,17.1,41.2c19.5,41.2,34.1,81.4,41.8,114.6c1.6,6.8,7.3,12,13.2,12
		c6.1,0,8.4-2.5,17.1-18.2c3.6-6.6,7.3-12.5,8.2-13c1.8-1.1,2.1,0,5.2,19.1c2.7,15.7,11.4,41.2,17.7,51.4
		c9.3,15,24.6,20.5,34.8,12.5l4.5-3.6l5.4,9.6c11.6,20.2,41.8,47.5,52.6,47.5C599.8,6901.5,602.5,6899.5,609.8,6891.3z M537,6606.9
		c59.2-20.3,107.6-21.4,167.9-3.4c9.6,2.9,21.4,6.8,26.2,8.9l8.7,3.7l3.2-4.1c6.1-8.2,18.9-33,26.2-50.9
		c9.6-23.7,17.3-54.4,20.9-82.4c3-24.4,6.1-32.8,13.7-38.4c5.9-4.3,18.7-4.8,36.4-1.6c11.6,2.1,21.4,0.9,24.1-3.4
		c2.3-3.7,1.6-23.4-1.2-32.8c-5-17.1-20.5-30-41.8-34.4c-11.2-2.3-18.7-7.3-22.7-14.8c-2.9-5.5-8-36.8-6.6-39.3
		c0.4-0.9,30.7-1.4,67.1-1.6c46,0,68.2-0.7,72.1-2.1c11.8-4.5,21.2-13,27.1-24.4l5.5-11.2v-191.1v-191.1l-4.3-8.9
		c-5.4-11.6-18.6-23.4-30.2-26.8c-7.9-2.3-47.5-2.7-304.6-2.7c-258.4,0-296.8,0.4-304.6,2.7c-12,3.6-25.5,15.7-30.7,27.5l-3.7,9.1
		l0.4,193.1c0.5,218.1-0.9,197.6,15,212.9c13.4,13,15.3,13.4,92.1,13.4c37.1,0,67.5,0.5,67.5,1.4c-0.2,8.7-5.9,35.7-8.4,40.2
		c-4.1,6.8-13.7,13.7-19.5,13.7c-2.3,0-8.7,1.8-14.5,3.7c-20.2,7.7-32.7,26.8-32.7,50.5c0,8.7,0.7,12,3.4,14.3
		c4.3,3.9,14.8,4.3,30.7,1.1c13.9-2.7,22.8-1.4,29.8,4.5c7.1,5.9,8.6,10.7,11.8,36.8c5.7,46.4,20.2,88.9,43.4,127.1
		c4.8,8,7,10.2,9.3,9.1C515.8,6614.2,526,6610.6,537,6606.9z"/>
	<path class="st0" d="M541.5,6454.3c-12.1-6.2-17-19.6-12-32.5c10-24.8,45.7-19.6,48.5,7c0.9,9.1-3.2,18.2-10.4,23.6
		C561.1,6457.1,548.8,6458,541.5,6454.3z"/>
	<path class="st0" d="M673,6453.4c-8.6-5-12.3-11.8-12.3-22.8c0-7.5,0.9-10,5.4-15.2c9.8-11.1,24.8-12.7,35.3-3.7
		c14.8,12.3,11.4,35.5-6.2,43C687.1,6458,680.5,6457.7,673,6453.4z"/>
	<path class="st0" d="M318.6,6295.6c-5.7-2.9-10.9-7.3-14.1-12l-5.2-7.3l-0.5-189.3c-0.5-212-1.2-198.8,12.3-210.6
		c3.9-3.4,10.7-7,15-8c10.9-2.7,586.8-2.9,597.7,0c10,2.5,20.3,11.1,24.4,20.2c3.2,7,3.4,16.2,3.4,194.9v187.7l-5,9.5
		c-3.9,7.7-6.8,10.5-14.5,14.5l-9.5,5H625.2H327.7L318.6,6295.6z M927.3,6275.3l4.6-4.3v-189.9v-189.9l-4.5-4.3l-4.3-4.5h-297h-297
		l-4.8,4.6l-4.6,4.8v188.6c0,186.7,0,188.8,3.6,193.3c2,2.5,5.4,5,7.7,5.4c2.1,0.4,136.2,0.7,297.8,0.5l293.7-0.2L927.3,6275.3z"/>
	<path class="st0" d="M603.4,6127.5c-12.1-17.5-24.1-34.8-26.8-38.4l-4.6-6.6l-26.4,29.4c-14.5,16.2-26.4,29.3-26.8,28.9
		c-0.4-0.4,2.9-27.1,7.3-59.4c4.3-32.5,7.9-59.1,7.9-59.2c0-0.4,41.4-0.5,91.9-0.5h91.7l1.1,5.9c3,18.6,15.2,110.8,14.8,112.2
		c-0.4,0.9-12.1-11.2-26.1-26.9c-14.1-15.9-26.2-28.7-26.9-28.7c-0.9,0-13,16.4-26.9,36.6c-14.1,20.2-26.2,37.1-26.9,37.7
		C625.9,6158.8,615.4,6144.8,603.4,6127.5z M639.1,6078.1l7.7-10l-10.2-13.4c-5.7-7.3-10.5-13.4-10.7-13.4s-5,6.1-10.7,13.4
		l-10.4,13.6l5.4,6.6c2.9,3.6,7.5,9.6,10.4,13.2c5.2,6.4,5.5,6.6,8,3.4C630,6089.5,634.8,6083.6,639.1,6078.1z"/>
	<path class="st0" d="M533.5,6015.1c-0.7-0.5-1.2-3.4-1.2-6.2v-5h93.9h93.7l-0.5,5.9l-0.5,5.7l-92.1,0.5
		C576.1,6016.2,534,6015.8,533.5,6015.1z"/>
</g>
</svg>
