<?xml version="1.0" standalone="no"?>
<!DOCTYPE svg PUBLIC "-//W3C//DTD SVG 20010904//EN"
 "http://www.w3.org/TR/2001/REC-SVG-20010904/DTD/svg10.dtd">
<svg version="1.0" xmlns="http://www.w3.org/2000/svg"
 width="700.000000pt" height="700.000000pt" viewBox="0 0 700.000000 700.000000"
 preserveAspectRatio="xMidYMid meet">
<metadata>
Created by potrace 1.11, written by Peter Selinger 2001-2013
</metadata>
<g transform="translate(0.000000,700.000000) scale(0.100000,-0.100000)"
fill="#000000" stroke="none">
<path d="M1038 6984 c-522 -94 -932 -507 -1023 -1031 -23 -130 -23 -4777 0
-4907 46 -261 160 -480 350 -672 147 -149 305 -248 500 -313 194 -65 30 -61
2635 -61 2605 0 2441 -4 2635 61 445 149 770 526 850 986 23 130 23 4777 0
4907 -79 455 -404 836 -835 980 -211 71 -25 66 -2659 65 -1980 -1 -2389 -3
-2453 -15z m2377 -591 c145 -165 231 -223 360 -243 146 -23 288 -102 399 -222
46 -49 66 -65 66 -52 0 72 23 261 33 273 18 22 71 41 96 34 55 -14 208 -268
252 -418 11 -38 23 -76 25 -84 3 -9 16 -3 43 22 49 44 73 52 108 35 59 -28 54
-78 -20 -176 -30 -41 -32 -49 -31 -120 1 -92 27 -168 119 -352 86 -172 116
-269 122 -401 4 -63 1 -133 -6 -175 -24 -135 -103 -291 -201 -395 -48 -51 -61
-59 -101 -65 l-47 -6 -7 41 c-7 40 -5 43 59 113 135 145 201 340 176 518 -15
111 -38 175 -116 332 -69 138 -124 287 -124 336 0 39 -9 62 -25 62 -28 0 -46
41 -65 148 -11 62 -32 142 -45 179 -28 73 -95 203 -106 203 -3 0 -10 -49 -13
-109 -7 -94 -11 -112 -29 -129 -74 -67 -150 -54 -204 35 -77 125 -222 219
-383 249 -158 29 -266 96 -394 246 l-36 42 -76 -74 c-87 -87 -134 -170 -134
-237 0 -57 -33 -93 -84 -93 -32 0 -38 5 -71 60 -20 33 -41 60 -46 60 -14 0
-52 -89 -80 -185 -16 -57 -23 -108 -24 -180 -2 -120 -8 -141 -45 -160 -59 -31
-110 -9 -176 74 -21 28 -42 50 -46 51 -3 0 -16 -33 -28 -72 -32 -105 -112
-304 -182 -448 -33 -69 -68 -149 -78 -177 -57 -160 -21 -384 101 -626 l50 -99
-11 -76 c-6 -42 -12 -78 -15 -80 -31 -31 -195 284 -245 473 -31 113 -38 307
-16 395 9 36 52 140 96 231 109 231 191 456 234 642 9 38 41 67 74 67 34 0 47
-14 96 -102 20 -37 41 -70 46 -73 10 -6 12 0 29 107 15 88 64 231 99 288 52
84 138 115 195 70 l25 -20 30 54 c65 113 234 266 295 266 26 0 41 -11 82 -57z
m-408 -1594 c332 -114 603 -120 941 -19 54 16 120 38 147 50 l49 21 18 -23
c34 -46 106 -185 147 -285 54 -133 97 -305 117 -462 17 -137 34 -184 77 -215
33 -24 105 -27 204 -9 65 12 120 5 135 -19 13 -21 9 -131 -7 -184 -28 -96
-115 -168 -234 -193 -63 -13 -105 -41 -127 -83 -16 -31 -45 -206 -37 -220 2
-5 172 -8 376 -9 258 0 382 -4 404 -12 66 -25 119 -73 152 -137 l31 -63 0
-1071 0 -1071 -24 -50 c-30 -65 -104 -131 -169 -150 -44 -13 -266 -15 -1707
-15 -1448 0 -1663 2 -1707 15 -67 20 -143 88 -172 154 l-21 51 2 1082 c3 1222
-5 1107 84 1193 75 73 86 75 516 75 208 0 378 3 378 8 -1 49 -33 200 -47 225
-23 38 -77 77 -109 77 -13 0 -49 10 -81 21 -113 43 -183 150 -183 283 0 49 4
67 19 80 24 22 83 24 172 6 78 -15 128 -8 167 25 40 33 48 60 66 206 32 260
113 498 243 712 27 45 39 57 52 51 9 -4 66 -24 128 -45z"/>
<path d="M3032 3944 c-68 -35 -95 -110 -67 -182 56 -139 256 -110 272 39 5 51
-18 102 -58 132 -37 27 -106 32 -147 11z"/>
<path d="M3769 3939 c-48 -28 -69 -66 -69 -128 0 -42 5 -56 30 -85 55 -62 139
-71 198 -21 83 69 64 199 -35 241 -45 19 -82 17 -124 -7z"/>
<path d="M1783 3055 c-32 -16 -61 -41 -79 -67 l-29 -41 -3 -1061 c-3 -1188 -7
-1114 69 -1180 22 -19 60 -39 84 -45 61 -15 3288 -16 3349 0 56 14 114 62 137
113 18 39 19 91 19 1092 l0 1052 -28 53 c-22 43 -38 59 -81 81 l-53 28 -1667
0 -1667 0 -51 -25z m3411 -114 l26 -24 0 -1064 0 -1064 -25 -24 -24 -25 -1664
0 -1664 0 -27 26 -26 27 0 1057 c0 1046 0 1058 20 1083 11 14 30 28 43 30 12
2 763 4 1669 3 l1646 -1 26 -24z"/>
<path d="M3379 2113 c-68 -98 -135 -195 -150 -215 l-26 -37 -148 165 c-81 91
-148 164 -150 162 -2 -2 16 -152 41 -333 24 -182 44 -331 44 -332 0 -2 232 -3
515 -3 l514 0 6 33 c17 104 85 621 83 629 -2 5 -68 -63 -146 -151 -79 -89
-147 -161 -151 -161 -5 0 -73 92 -151 205 -79 113 -147 208 -151 211 -4 2 -63
-76 -130 -173z m200 -277 l43 -56 -57 -75 c-32 -41 -59 -75 -60 -75 -1 0 -28
34 -60 75 l-58 76 30 37 c16 20 42 54 58 74 29 36 31 37 45 19 8 -11 35 -44
59 -75z"/>
<path d="M2987 1483 c-4 -3 -7 -19 -7 -35 l0 -28 526 0 525 0 -3 33 -3 32
-516 3 c-283 1 -519 -1 -522 -5z"/>
</g>
</svg>
