<svg xmlns="http://www.w3.org/2000/svg" viewBox="0 0 77 20.3" fill="#fff"><path d="M14 19.5h-3.9v-1.8H10c-.1.3-.3.5-.6.8-.1.3-.4.5-.7.7s-.7.4-1.1.5-.9.2-1.3.2c-1 0-1.9-.2-2.5-.5s-1.1-.7-1.5-1.3c-.3-.6-.6-1.2-.7-2l-.2-2.4V6.5h4v7.6c0 .4.1.8.2 1.1s.3.6.6.8.7.3 1.2.3.9-.1 1.3-.3c.3-.2.6-.4.7-.8.2-.3.3-.7.3-1.1s.3-.7.3-1.1V6.5h4v13zm3.4-19h6.3A19.5 19.5 0 0 1 28 1a8.59 8.59 0 0 1 3.6 1.7c1 .8 1.8 1.8 2.4 3s.9 2.7.9 4.4c0 1.5-.3 2.9-.9 4.1s-1.4 2.2-2.4 3a10.08 10.08 0 0 1-3.4 1.8c-1.3.4-2.6.6-4.1.6h-6.9V.5zm4.2 15.2h2.2c1 0 1.9-.1 2.7-.3s1.6-.5 2.2-1 1.1-1.1 1.4-1.8.5-1.7.5-2.7c0-.9-.2-1.7-.5-2.4s-.8-1.3-1.4-1.7-1.3-.8-2.1-1-1.6-.3-2.5-.3h-2.5v11.2zm23.2 0h-8.3v-3.4L44.3.5h4.4v11.8h2.4v3.4h-2.4v3.8h-3.9v-3.8zm0-9.9l-4.3 6.5h4.3V5.8zm8.4.7h4v2.1h.1c.4-.8.9-1.4 1.5-1.8s1.3-.6 2.2-.6h.7c.2 0 .4.1.6.1V10c-.3-.1-.6-.2-.8-.2s-.5-.1-.8-.1c-.8 0-1.4.1-1.8.3s-.8.5-1 .9-.4.8-.5 1.4-.1 1.1-.1 1.8v5.5h-4V6.5zm19.2 11.4c-.5.7-1.1 1.2-1.8 1.5s-1.5.5-2.4.5c-.6 0-1.2-.1-1.8-.3s-1.1-.4-1.5-.8a3.25 3.25 0 0 1-1-1.3c-.3-.5-.4-1.1-.4-1.7 0-.8.1-1.4.4-1.9s.7-1 1.1-1.3c.5-.3 1-.6 1.6-.8s1.2-.3 1.9-.4l2-.2h1.8c0-.7-.3-1.3-.8-1.7s-1.1-.6-1.8-.6-1.3.1-1.8.4-1 .7-1.5 1.1l-2.2-2.2C65.1 7.5 66 7 67 6.7s2-.5 3.1-.5c1.2 0 2.2.1 2.9.4.8.3 1.4.7 1.8 1.3.5.6.8 1.3 1 2.1s.3 1.8.3 2.9v6.6h-3.7v-1.6zm-1-4.1h-1.1c-.5 0-.9.1-1.3.2s-.8.3-1.1.6-.4.6-.4 1c0 .5.2.8.6 1.1.4.2.8.3 1.3.3.4 0 .8-.1 1.1-.2.4-.1.7-.3 1-.5a1.85 1.85 0 0 0 .7-.8c.2-.3.3-.7.3-1.1v-.9h-1.1z"/></svg>